<?xml version="1.0" encoding="iso-8859-1"?>
<!-- Generator: Adobe Illustrator 19.0.0, SVG Export Plug-In . SVG Version: 6.00 Build 0)  -->
<svg xmlns="http://www.w3.org/2000/svg" xmlns:xlink="http://www.w3.org/1999/xlink" version="1.1" id="Capa_1" x="0px" y="0px" viewBox="0 0 512 512" style="enable-background:new 0 0 512 512;" xml:space="preserve" width="512px" height="512px">
<g>
	<g>
		<path d="M116.583,122.337c-3.01-2.983-7.869-2.96-10.85,0.051c-8.129,8.209-21.421,8.273-29.63,0.143    c-3.011-2.983-7.867-2.96-10.849,0.051c-2.982,3.012-2.958,7.869,0.052,10.849c6.846,6.781,15.908,10.508,25.537,10.508    c0.059,0,0.12,0,0.179,0c9.694-0.046,18.792-3.865,25.614-10.753C119.617,130.176,119.594,125.318,116.583,122.337z" fill="#8f0034"/>
	</g>
</g>
<g>
	<g>
		<path d="M157.783,124.573c12.651-2.469,22.229-13.632,22.229-26.995c0-12.91-8.942-23.764-20.955-26.712v-2.724    c0-37.558-30.555-68.113-68.113-68.113S22.83,30.584,22.83,68.142v2.334C9.885,72.704,0,84.004,0,97.578    c0,14.034,10.567,25.639,24.16,27.296c4.24,21.189,18.336,38.863,37.294,48.006v4.497H39.021    c-16.048,0-29.104,13.056-29.104,29.104v45.628c0,4.238,3.435,7.672,7.672,7.672h17.477c4.237,0,7.672-3.434,7.672-7.672    c0-4.238-3.435-7.672-7.672-7.672h-9.805v-37.955c0-7.587,6.172-13.76,13.76-13.76h22.436c0.039,4.204,3.456,7.601,7.668,7.601    c4.237,0,7.672-3.434,7.672-7.672v-14.536c4.566,0.969,9.297,1.487,14.146,1.487c3.238,0,6.419-0.242,9.537-0.681v13.73    c0,4.238,3.435,7.672,7.672,7.672c4.213,0,7.629-3.396,7.668-7.601h21.522c7.587,0,13.76,6.172,13.76,13.76v37.955H68.05    c-4.237,0-7.672,3.434-7.672,7.672s3.435,7.672,7.672,7.672h90.726c4.237,0,7.672-3.434,7.672-7.672v-45.627    c0-16.048-13.056-29.104-29.104-29.104h-21.519v-2.503C137.176,166.464,153.288,147.579,157.783,124.573z M159.057,87.348    c3.369,2.165,5.611,5.937,5.611,10.231c0,4.293-2.242,8.066-5.611,10.232V87.348z M22.831,108.804    c-4.392-1.836-7.487-6.176-7.487-11.226s3.095-9.389,7.487-11.225V108.804z M90.944,15.373c29.097,0,52.769,23.672,52.769,52.769    v2.189c-43.481-1.812-65.641-23.494-73.328-33.052c-2.656-3.303-7.484-3.827-10.787-1.17c-3.302,2.656-3.826,7.484-1.17,10.786    c0.408,0.507,0.863,1.054,1.341,1.616c-3.365,3.483-10.244,9.111-20.907,11.169C42.926,34.592,64.729,15.373,90.944,15.373z     M90.944,164.257c-29.097,0-52.769-23.671-52.769-52.769v-36.16c16.311-2.084,27.001-10.461,32.467-16.043    c13.837,11.676,37.339,25.071,73.07,26.406v25.797C143.713,140.585,120.041,164.257,90.944,164.257z" fill="#8f0034"/>
	</g>
</g>
<g>
	<g>
		<path d="M68.6,85.447c-4.237,0-7.672,3.434-7.672,7.672v9.527c0,4.237,3.435,7.672,7.672,7.672c4.237,0,7.672-3.434,7.672-7.672    v-9.527C76.272,88.881,72.837,85.447,68.6,85.447z" fill="#8f0034"/>
	</g>
</g>
<g>
	<g>
		<path d="M111.735,85.446c-4.237,0-7.672,3.434-7.672,7.672v9.527c0,4.238,3.435,7.672,7.672,7.672s7.672-3.434,7.672-7.672v-9.527    C119.407,88.881,115.972,85.446,111.735,85.446z" fill="#8f0034"/>
	</g>
</g>
<g>
	<g>
		<path d="M489.771,124.572C502.421,122.102,512,110.94,512,97.578c0-12.91-8.942-23.764-20.954-26.711v-2.724    c0-37.558-30.555-68.113-68.113-68.113c-37.559,0-68.114,30.555-68.114,68.113v2.334c-12.946,2.228-22.83,13.529-22.83,27.101    c0,14.034,10.566,25.638,24.159,27.296c4.24,21.189,18.337,38.863,37.295,48.006v4.497h-22.433    c-16.048,0-29.104,13.056-29.104,29.104v45.628c0,4.238,3.434,7.672,7.672,7.672h22.114c4.238,0,7.672-3.434,7.672-7.672    c0-4.238-3.434-7.672-7.672-7.672h-14.442v-37.955c0-7.587,6.172-13.76,13.76-13.76h22.436c0.039,4.204,3.456,7.601,7.668,7.601    c4.238,0,7.672-3.434,7.672-7.672v-14.536c4.566,0.969,9.297,1.487,14.146,1.487c3.238,0,6.419-0.242,9.537-0.681v13.73    c0,4.238,3.434,7.672,7.672,7.672c4.214,0,7.629-3.396,7.668-7.601h21.522c7.586,0,13.759,6.172,13.759,13.76v37.955h-80.4    c-4.238,0-7.672,3.434-7.672,7.672s3.434,7.672,7.672,7.672h88.072c4.238,0,7.672-3.434,7.672-7.672v-45.628    c0-16.048-13.056-29.104-29.103-29.104h-21.518v-2.503C469.165,166.463,485.275,147.578,489.771,124.572z M491.046,87.348    c3.368,2.166,5.61,5.937,5.61,10.231c0,4.293-2.241,8.066-5.61,10.23V87.348z M354.818,108.804    c-4.391-1.837-7.486-6.176-7.486-11.226c0-5.049,3.094-9.388,7.486-11.225V108.804z M422.932,15.373    c29.097,0,52.769,23.672,52.769,52.769v2.189c-43.482-1.812-65.641-23.494-73.329-33.052c-2.655-3.303-7.485-3.827-10.786-1.17    c-3.303,2.656-3.826,7.484-1.17,10.786c0.406,0.505,0.859,1.049,1.335,1.608c-3.386,3.503-10.261,9.119-20.901,11.175    C374.914,34.591,396.717,15.373,422.932,15.373z M422.932,164.256c-29.097,0-52.77-23.67-52.77-52.768v-36.16    c16.311-2.084,27.001-10.462,32.467-16.044c13.837,11.676,37.339,25.071,73.071,26.406v25.797    C475.701,140.584,452.029,164.256,422.932,164.256z" fill="#8f0034"/>
	</g>
</g>
<g>
	<g>
		<path d="M448.571,122.337c-3.012-2.983-7.87-2.959-10.85,0.051c-8.128,8.209-21.419,8.274-29.63,0.143    c-3.012-2.984-7.869-2.959-10.849,0.051c-2.982,3.01-2.959,7.869,0.051,10.849c6.846,6.781,15.909,10.508,25.538,10.508    c0.059,0,0.119,0,0.178,0c9.695-0.046,18.792-3.865,25.614-10.753C451.604,130.176,451.582,125.318,448.571,122.337z" fill="#8f0034"/>
	</g>
</g>
<g>
	<g>
		<path d="M400.588,85.447c-4.238,0-7.672,3.434-7.672,7.672v9.527c0,4.237,3.434,7.672,7.672,7.672    c4.238,0,7.672-3.434,7.672-7.672v-9.527C408.26,88.881,404.826,85.447,400.588,85.447z" fill="#8f0034"/>
	</g>
</g>
<g>
	<g>
		<path d="M443.722,85.446c-4.238,0-7.672,3.434-7.672,7.672v9.527c0,4.238,3.434,7.672,7.672,7.672s7.672-3.434,7.672-7.672v-9.527    C451.394,88.881,447.959,85.446,443.722,85.446z" fill="#8f0034"/>
	</g>
</g>
<g>
	<g>
		<path d="M281.857,374.527c-3.011-2.98-7.867-2.959-10.85,0.054c-3.938,3.976-9.188,6.181-14.785,6.207    c-5.57,0.006-10.868-2.128-14.844-6.066c-3.011-2.983-7.867-2.959-10.849,0.051c-2.982,3.011-2.958,7.869,0.052,10.849    c6.846,6.781,15.909,10.509,25.537,10.509c0.059,0,0.119,0,0.178-0.001c9.695-0.046,18.792-3.865,25.615-10.754    C284.891,382.367,284.869,377.509,281.857,374.527z" fill="#8f0034"/>
	</g>
</g>
<g>
	<g>
		<path d="M323.059,376.762c12.65-2.469,22.229-13.631,22.229-26.992c-0.002-12.909-8.944-23.764-20.956-26.711v-2.724    c0-29.271-18.561-54.284-44.53-63.899c7.067-6.074,11.555-15.067,11.555-25.094c0-18.247-14.846-33.093-33.093-33.093    c-18.247,0-33.092,14.846-33.092,33.093c0,9.483,4.015,18.04,10.427,24.078c-27.507,8.758-47.492,34.543-47.492,64.914v2.334    c-12.947,2.228-22.831,13.53-22.831,27.102c0,14.034,10.566,25.638,24.16,27.295c4.24,21.19,18.336,38.863,37.295,48.007v4.497    h-22.433c-16.048,0-29.103,13.056-29.103,29.103v45.628c0,4.238,3.435,7.672,7.672,7.672h141.185c4.238,0,7.672-3.434,7.672-7.672    v-45.628c0-16.048-13.056-29.103-29.103-29.103h-21.518v-2.503C302.454,418.654,318.565,399.768,323.059,376.762z     M324.332,339.539c3.369,2.166,5.61,5.937,5.61,10.231s-2.241,8.066-5.61,10.231V339.539z M188.105,360.995    c-4.392-1.836-7.487-6.176-7.487-11.225c0-5.05,3.095-9.39,7.487-11.226V360.995z M258.264,213.593    c9.786,0,17.749,7.962,17.749,17.749c0,9.788-7.962,17.749-17.749,17.749c-9.787,0-17.748-7.962-17.748-17.749    C240.516,221.554,248.477,213.593,258.264,213.593z M256.218,267.565c29.097,0,52.769,23.672,52.769,52.769v2.189    c-43.482-1.812-65.641-23.494-73.328-33.051c-2.656-3.303-7.484-3.828-10.787-1.17c-3.302,2.656-3.826,7.484-1.17,10.786    c0.406,0.505,0.86,1.049,1.335,1.609c-3.386,3.503-10.261,9.118-20.901,11.174C208.2,286.784,230.003,267.565,256.218,267.565z     M302.617,444.915c7.587,0,13.76,6.172,13.76,13.759v37.955H190.535v-37.955c0-7.586,6.172-13.759,13.759-13.759h22.436    c0.04,4.203,3.456,7.599,7.668,7.599c4.237,0,7.672-3.434,7.672-7.672v-14.535c4.566,0.969,9.297,1.487,14.146,1.487    c3.238,0,6.419-0.242,9.538-0.681v13.729c0,4.238,3.434,7.672,7.672,7.672c4.214,0,7.629-3.395,7.668-7.599H302.617z     M256.218,416.449c-29.097,0-52.769-23.672-52.769-52.769v-36.161c16.31-2.084,27-10.461,32.466-16.043    c13.837,11.676,37.339,25.07,73.071,26.405v25.798C308.988,392.778,285.315,416.449,256.218,416.449z" fill="#8f0034"/>
	</g>
</g>
<g>
	<g>
		<path d="M233.874,337.638c-4.237,0-7.672,3.434-7.672,7.672v9.527c0,4.238,3.435,7.672,7.672,7.672    c4.237,0,7.672-3.434,7.672-7.672v-9.527C241.546,341.072,238.111,337.638,233.874,337.638z" fill="#8f0034"/>
	</g>
</g>
<g>
	<g>
		<path d="M277.008,337.638c-4.238,0-7.672,3.434-7.672,7.672v9.527c0,4.238,3.434,7.672,7.672,7.672s7.672-3.434,7.672-7.672    v-9.527C284.68,341.072,281.246,337.638,277.008,337.638z" fill="#8f0034"/>
	</g>
</g>
<g>
	<g>
		<path d="M307.357,34.415H206.561c-4.237,0-7.672,3.434-7.672,7.672c0,4.238,3.435,7.672,7.672,7.672h100.796    c4.238,0,7.672-3.434,7.672-7.672C315.029,37.849,311.595,34.415,307.357,34.415z" fill="#8f0034"/>
	</g>
</g>
<g>
	<g>
		<path d="M476.048,303.534c-4.238,0-7.672,3.434-7.672,7.672c0,57.391-46.692,104.084-104.085,104.084    c-4.238,0-7.672,3.434-7.672,7.672c0,4.238,3.434,7.672,7.672,7.672c65.853,0,119.429-53.575,119.429-119.428    C483.721,306.968,480.287,303.534,476.048,303.534z" fill="#8f0034"/>
	</g>
</g>
<g>
	<g>
		<path d="M146.823,415.29c-57.393,0-104.085-46.693-104.085-104.084c0-4.238-3.435-7.672-7.672-7.672s-7.672,3.434-7.672,7.672    c0,65.853,53.576,119.428,119.429,119.428c4.237,0,7.672-3.434,7.672-7.672C154.495,418.724,151.06,415.29,146.823,415.29z" fill="#8f0034"/>
	</g>
</g>
<g>
</g>
<g>
</g>
<g>
</g>
<g>
</g>
<g>
</g>
<g>
</g>
<g>
</g>
<g>
</g>
<g>
</g>
<g>
</g>
<g>
</g>
<g>
</g>
<g>
</g>
<g>
</g>
<g>
</g>
</svg>
