<?xml version="1.0" encoding="iso-8859-1"?>
<!-- Generator: Adobe Illustrator 19.0.0, SVG Export Plug-In . SVG Version: 6.00 Build 0)  -->
<svg xmlns="http://www.w3.org/2000/svg" xmlns:xlink="http://www.w3.org/1999/xlink" version="1.1" id="Capa_1" x="0px" y="0px" viewBox="0 0 512 512" style="enable-background:new 0 0 512 512;" xml:space="preserve" width="512px" height="512px">
<g>
	<g>
		<path d="M379.512,123.512c-0.001-43.672-23.432-84.532-61.153-106.635c-3.585-2.102-8.199-0.898-10.301,2.689    c-2.103,3.587-0.898,8.199,2.689,10.301c18.57,10.881,33.193,26.938,42.463,45.703l-9.258,8.102l-18.282-22.853    c-3.028-3.781-8.995-3.687-11.9,0.187L296.372,84.2c-1.17,1.561-1.69,3.515-1.447,5.451l5.663,45.305l-5.619,33.713    c-0.365,2.197,0.261,4.444,1.71,6.136l27.957,32.618c-17.925,14.688-40.621,23.757-65.375,24.491l3.929-35.356l21.33-21.329    c0.572-0.572,1.049-1.234,1.41-1.956l11.599-23.197c0.936-1.873,1.051-4.05,0.315-6.01l-17.398-46.394    c-0.377-1.006-0.966-1.919-1.725-2.68l-23.196-23.196c-0.252-0.252-0.522-0.485-0.807-0.699l-23.197-17.4    c-0.803-0.602-1.717-1.037-2.691-1.281l-20.029-5.006l-9.177-16.519C216.063,20.849,235.367,15.056,256,15.056    c7.731,0,15.446,0.816,22.929,2.427c4.062,0.876,8.069-1.71,8.943-5.775c0.874-4.065-1.711-8.069-5.775-8.943    C273.573,0.93,264.793,0,256,0c-25.948,0-50.047,8.05-69.946,21.772c-0.028,0.015-0.056,0.026-0.084,0.041    c-0.479,0.266-0.914,0.579-1.31,0.926c-31.547,22.4-52.171,59.221-52.171,100.772c0,65.576,51.372,119.37,115.984,123.275v40.886    c0,0.081,0.01,0.161,0.012,0.242l-13.06,9.795c-3.025,2.268-3.894,6.581-1.971,9.84c2.247,3.81,7.462,4.862,11.005,2.204    l32.119-24.089c3.325-2.494,4-7.214,1.506-10.539c-2.493-3.325-7.214-3.999-10.539-1.506l-4.015,3.011v-29.845    C328.14,242.882,379.512,189.088,379.512,123.512z M310.397,167.676l5.221-31.329c0.119-0.718,0.135-1.448,0.044-2.171    L310.24,90.8l9.743-12.989l17.126,21.408c2.639,3.298,7.654,3.748,10.835,0.963l11.253-9.846    c3.427,10.597,5.259,21.775,5.259,33.176c-0.001,28.37-10.955,54.227-28.851,73.574L310.397,167.676z M147.544,123.512    c0-8.705,1.038-17.171,2.984-25.288l27.701,9.233c0.184,0.061,0.368,0.114,0.555,0.162l18.979,4.746l8.266,28.93l-15.647,3.91    c-2.375,0.594-4.313,2.305-5.195,4.589c-0.883,2.282-0.601,4.853,0.758,6.889l20.243,30.364l-16.607,22.143    C164.022,189.33,147.544,158.311,147.544,123.512z M248.518,192.27l-4.339,39.05c-15.181-1.653-29.433-6.446-42.084-13.723    l19.333-25.779c1.915-2.553,2.011-6.037,0.241-8.692l-17.272-25.908l12.834-3.208c4.066-1.017,6.565-5.336,5.412-9.372    l-11.599-40.594c-0.739-2.587-2.802-4.582-5.412-5.235l-22.917-5.729l-27.667-9.222c6.84-17.355,18.035-32.534,32.228-44.189    l9.949,17.907c1.013,1.821,2.734,3.142,4.755,3.647l21.723,5.43l21.553,16.164l21.665,21.665l15.673,41.794l-9.584,19.169    l-22.332,22.331C249.468,188.986,248.707,190.571,248.518,192.27z" fill="#8f0034"/>
	</g>
</g>
<g>
	<g>
		<path d="M263.493,400.785c0.021-0.23,0.035-0.462,0.035-0.698v-48.178c0-0.081-0.01-0.161-0.012-0.242l13.06-9.795    c3.325-2.494,4-7.214,1.506-10.539c-2.493-3.325-7.214-3.999-10.539-1.506l-32.119,24.089c-3.025,2.268-3.894,6.581-1.971,9.84    c2.247,3.81,7.462,4.862,11.005,2.204l4.015-3.011v37.137c0,0.235,0.014,0.468,0.035,0.698    c-15.802,1.737-28.139,15.163-28.139,31.421v40.148c0,4.158,3.369,7.528,7.528,7.528h8.531v24.591    c0,4.158,3.369,7.528,7.528,7.528c4.158,0,7.528-3.369,7.528-7.528v-24.591h9.033v24.591c0,4.158,3.369,7.528,7.528,7.528    c4.158,0,7.528-3.369,7.528-7.528v-24.591h8.531c4.158,0,7.528-3.369,7.528-7.528v-40.148    C291.631,415.949,279.295,402.522,263.493,400.785z M276.576,464.826h-41.152v-32.62c0-9.132,7.429-16.561,16.561-16.561h8.03    c9.132,0,16.561,7.429,16.561,16.561V464.826z" fill="#8f0034"/>
	</g>
</g>
<g>
</g>
<g>
</g>
<g>
</g>
<g>
</g>
<g>
</g>
<g>
</g>
<g>
</g>
<g>
</g>
<g>
</g>
<g>
</g>
<g>
</g>
<g>
</g>
<g>
</g>
<g>
</g>
<g>
</g>
</svg>
