<svg width="512" height="512" xmlns="http://www.w3.org/2000/svg">

 <g>
  <title>background</title>
  <rect fill="none" id="canvas_background" height="402" width="582" y="-1" x="-1"/>
 </g>
 <g>
  <title>Layer 1</title>
  <path stroke="null" id="svg_5" fill="#FFFFFF" d="m160.25641,413.014875l70.34936,0c89.84621,0 130.906862,-68.432488 130.906862,-154.894164c0,-92.22497 -41.755558,-159.217655 -137.869741,-159.217655l-63.386481,0l0,314.111819zm-104.445159,-358.051326c0,-33.158346 22.282397,-55.488561 53.61634,-55.488561l115.60906,0c156.018238,0 245.145852,103.75156 245.145852,263.688096c0,151.293635 -94.698707,249.2819 -238.182973,249.2819l-121.180153,0c-23.000993,0 -55.008126,-12.966392 -55.008126,-54.024251l0,-403.457184l0,0z"/>
  <g id="svg_6"/>
  <g id="svg_7"/>
  <g id="svg_8"/>
  <g id="svg_9"/>
  <g id="svg_10"/>
  <g id="svg_11"/>
  <g id="svg_12"/>
  <g id="svg_13"/>
  <g id="svg_14"/>
  <g id="svg_15"/>
  <g id="svg_16"/>
  <g id="svg_17"/>
  <g id="svg_18"/>
  <g id="svg_19"/>
  <g id="svg_20"/>
 </g>
</svg>