<svg width="512" height="512" xmlns="http://www.w3.org/2000/svg">

 <g>
  <title>background</title>
  <rect fill="none" id="canvas_background" height="402" width="582" y="-1" x="-1"/>
 </g>
 <g>
  <title>Layer 1</title>
  <path id="svg_4" fill="#4135C9" d="m512,454.11125c0,31.4175 -25.4725,56.88875 -56.88875,56.88875l-398.2225,0c-31.41625,0 -56.88875,-25.4725 -56.88875,-56.88875l0,-398.2225c0,-31.41625 25.4725,-56.88875 56.88875,-56.88875l398.2225,0c31.41625,0 56.88875,25.4725 56.88875,56.88875l0,398.2225z"/>
  <path id="svg_5" fill="#FFFFFF" d="m194.94375,350.5875l44.54375,0c56.88875,0 82.8875,-41.885 82.8875,-94.805c0,-56.4475 -26.43875,-97.45125 -87.29625,-97.45125l-40.135,0l0,192.25625zm-66.1325,-219.15c0,-20.295 14.10875,-33.9625 33.94875,-33.9625l73.20125,0c98.7875,0 155.22125,63.5025 155.22125,161.39375c0,92.60125 -59.96125,152.57625 -150.8125,152.57625l-76.72875,0c-14.56375,0 -34.83,-7.93625 -34.83,-33.06625l0,-246.94125l0,0z"/>
  <g id="svg_6"/>
  <g id="svg_7"/>
  <g id="svg_8"/>
  <g id="svg_9"/>
  <g id="svg_10"/>
  <g id="svg_11"/>
  <g id="svg_12"/>
  <g id="svg_13"/>
  <g id="svg_14"/>
  <g id="svg_15"/>
  <g id="svg_16"/>
  <g id="svg_17"/>
  <g id="svg_18"/>
  <g id="svg_19"/>
  <g id="svg_20"/>
 </g>
</svg>