<?xml version="1.0" encoding="iso-8859-1"?>
<!-- Generator: Adobe Illustrator 19.0.0, SVG Export Plug-In . SVG Version: 6.00 Build 0)  -->
<svg xmlns="http://www.w3.org/2000/svg" xmlns:xlink="http://www.w3.org/1999/xlink" version="1.1" id="Capa_1" x="0px" y="0px" viewBox="0 0 504.034 504.034" style="enable-background:new 0 0 504.034 504.034;" xml:space="preserve" width="512px" height="512px">
<g>
	<g>
		<g>
			<path d="M477.398,252.944c-29.971-25.494-74.504-23.668-102.286,4.195c-1.656,1.656-3.188,3.388-4.657,5.155l-84.089-44.065     h133.767c13.9-0.015,25.165-11.28,25.18-25.18v-67.148c-0.019-6.215-2.354-12.201-6.549-16.787     c4.195-4.586,6.53-10.571,6.549-16.787V25.18c-0.015-13.9-11.28-25.165-25.18-25.18H84.394c-13.9,0.015-25.165,11.28-25.18,25.18     v67.148c0.019,6.215,2.354,12.201,6.549,16.787c-4.195,4.586-6.53,10.572-6.549,16.787v67.148     c0.015,13.9,11.28,25.165,25.18,25.18h133.767l-84.089,44.065c-1.47-1.766-3.001-3.499-4.657-5.155     c-27.872-27.985-72.575-29.837-102.667-4.255c-30.092,25.583-35.457,70.002-12.322,102.014     c23.135,32.012,66.994,40.857,100.727,20.313c33.734-20.544,46.003-63.57,28.178-98.816l100.539-52.682v129.35     c-39.938,4.455-69.439,39.332-67.208,79.455c2.231,40.123,35.417,71.515,75.602,71.515s73.371-31.392,75.602-71.515     c2.231-40.123-27.271-75-67.208-79.455V223.711l100.539,52.684c-17.737,35.122-5.496,77.979,28.115,98.435     c33.612,20.456,77.301,11.639,100.349-20.252C512.707,322.688,507.368,278.439,477.398,252.944z M106.24,360.859     c-18.619,11.146-41.859,11.146-60.478,0c-1.054-2.879-1.613-5.916-1.654-8.982c0.13-9.085,4.599-17.56,12.023-22.798     c11.76,8.878,27.982,8.878,39.742,0c7.424,5.238,11.893,13.713,12.023,22.798C107.854,354.943,107.294,357.98,106.24,360.859z      M59.214,302.164c0-9.271,7.516-16.787,16.787-16.787c9.271,0,16.787,7.516,16.787,16.787     c-0.011,9.267-7.52,16.776-16.787,16.787C66.73,318.951,59.214,311.435,59.214,302.164z M123.963,344.393     c-2.043-11.309-8.299-21.422-17.506-28.299c2.036-4.363,3.1-9.116,3.117-13.93c0-18.542-15.031-33.574-33.574-33.574     s-33.574,15.031-33.574,33.574c0.018,4.814,1.081,9.568,3.117,13.93c-9.207,6.877-15.463,16.99-17.506,28.299     c-17.227-24.386-13.414-57.817,8.862-77.696c22.276-19.88,55.924-19.88,78.2,0C137.377,286.577,141.191,320.008,123.963,344.393z      M176.722,16.787h243.41c4.634,0.005,8.389,3.76,8.393,8.393v67.148c-0.005,4.634-3.76,8.389-8.393,8.393h-243.41V16.787z      M159.935,201.443H84.394c-4.634-0.005-8.389-3.76-8.393-8.393v-67.148c0.005-4.634,3.76-8.389,8.393-8.393h75.541V201.443z      M159.935,100.721H84.394c-4.634-0.005-8.389-3.76-8.393-8.393V25.18c0.005-4.634,3.76-8.389,8.393-8.393h75.541V100.721z      M282.502,478.367c-18.619,11.145-41.859,11.145-60.478,0v0c-1.054-2.879-1.613-5.916-1.654-8.982     c0.13-9.085,4.599-17.56,12.023-22.798c11.76,8.878,27.982,8.878,39.742,0c7.424,5.238,11.893,13.713,12.023,22.798     C284.116,472.451,283.557,475.488,282.502,478.367z M235.476,419.672c0-9.271,7.516-16.787,16.787-16.787     s16.787,7.516,16.787,16.787c-0.011,9.267-7.52,16.776-16.787,16.787C242.992,436.459,235.476,428.943,235.476,419.672z      M291.363,384.205c22.276,19.88,26.09,53.311,8.862,77.696c-2.043-11.309-8.299-21.422-17.506-28.299     c2.036-4.363,3.1-9.116,3.117-13.93c0-18.542-15.031-33.574-33.574-33.574s-33.574,15.031-33.574,33.574     c0.018,4.814,1.081,9.568,3.117,13.93c-9.207,6.877-15.463,16.99-17.506,28.299c-17.227-24.386-13.414-57.817,8.862-77.696     C235.439,364.325,269.087,364.325,291.363,384.205z M176.722,201.443v-83.934h243.41c4.634,0.005,8.389,3.76,8.393,8.393v67.148     c-0.005,4.634-3.76,8.389-8.393,8.393H176.722z M458.765,360.859c-18.619,11.146-41.859,11.146-60.478,0     c-1.054-2.879-1.613-5.916-1.654-8.982c0.13-9.085,4.599-17.56,12.023-22.798c11.76,8.878,27.982,8.878,39.742,0     c7.424,5.238,11.893,13.713,12.023,22.798C460.378,354.943,459.819,357.98,458.765,360.859z M411.738,302.164     c0-9.271,7.516-16.787,16.787-16.787c9.271,0,16.787,7.516,16.787,16.787c-0.011,9.267-7.52,16.776-16.787,16.787     C419.254,318.951,411.738,311.435,411.738,302.164z M476.488,344.393c-2.043-11.309-8.299-21.422-17.506-28.299     c2.036-4.363,3.1-9.116,3.117-13.93c0-18.542-15.031-33.574-33.574-33.574s-33.574,15.031-33.574,33.574     c0.018,4.814,1.081,9.568,3.117,13.93c-9.207,6.877-15.463,16.99-17.506,28.299c-12.672-17.913-14.291-41.4-4.196-60.883     c10.095-19.483,30.216-31.705,52.159-31.683c21.943-0.022,42.064,12.2,52.159,31.683     C490.779,302.993,489.16,326.48,476.488,344.393z" fill="#8f0034"/>
			<path d="M117.968,83.934c13.907,0,25.18-11.274,25.18-25.18c0-13.907-11.274-25.18-25.18-25.18     c-13.907,0-25.18,11.274-25.18,25.18C92.803,72.655,104.068,83.919,117.968,83.934z M117.968,50.361     c4.636,0,8.393,3.758,8.393,8.393c0,4.636-3.758,8.393-8.393,8.393c-4.636,0-8.393-3.758-8.393-8.393     C109.579,54.12,113.334,50.365,117.968,50.361z" fill="#8f0034"/>
			<path d="M361.378,50.361H260.657c-4.636,0-8.393,3.758-8.393,8.393c0,4.636,3.758,8.393,8.393,8.393h100.721     c4.636,0,8.393-3.758,8.393-8.393C369.771,54.119,366.013,50.361,361.378,50.361z" fill="#8f0034"/>
			<path d="M403.345,50.361h-8.393c-4.636,0-8.393,3.758-8.393,8.393c0,4.636,3.758,8.393,8.393,8.393h8.393     c4.636,0,8.393-3.758,8.393-8.393C411.738,54.119,407.981,50.361,403.345,50.361z" fill="#8f0034"/>
			<path d="M218.689,33.574h-16.787c-4.636,0-8.393,3.758-8.393,8.393s3.758,8.393,8.393,8.393h16.787     c4.636,0,8.393-3.758,8.393-8.393S223.325,33.574,218.689,33.574z" fill="#8f0034"/>
			<path d="M218.689,67.148h-16.787c-4.636,0-8.393,3.758-8.393,8.393c0,4.636,3.758,8.393,8.393,8.393h16.787     c4.636,0,8.393-3.758,8.393-8.393C227.083,70.905,223.325,67.148,218.689,67.148z" fill="#8f0034"/>
			<path d="M117.968,184.656c13.907,0,25.18-11.274,25.18-25.18c-0.015-13.9-11.28-25.165-25.18-25.18     c-13.907,0-25.18,11.274-25.18,25.18C92.788,173.382,104.061,184.656,117.968,184.656z M117.968,151.082     c4.636,0,8.393,3.758,8.393,8.393c-0.005,4.634-3.76,8.389-8.393,8.393c-4.636,0-8.393-3.758-8.393-8.393     S113.332,151.082,117.968,151.082z" fill="#8f0034"/>
			<path d="M361.378,151.082H260.657c-4.636,0-8.393,3.758-8.393,8.393s3.758,8.393,8.393,8.393h100.721     c4.636,0,8.393-3.758,8.393-8.393S366.013,151.082,361.378,151.082z" fill="#8f0034"/>
			<path d="M403.345,151.082h-8.393c-4.636,0-8.393,3.758-8.393,8.393s3.758,8.393,8.393,8.393h8.393     c4.636,0,8.393-3.758,8.393-8.393S407.981,151.082,403.345,151.082z" fill="#8f0034"/>
			<path d="M218.689,134.295h-16.787c-4.636,0-8.393,3.758-8.393,8.393s3.758,8.393,8.393,8.393h16.787     c4.636,0,8.393-3.758,8.393-8.393S223.325,134.295,218.689,134.295z" fill="#8f0034"/>
			<path d="M218.689,167.869h-16.787c-4.636,0-8.393,3.758-8.393,8.393c0,4.636,3.758,8.393,8.393,8.393h16.787     c4.636,0,8.393-3.758,8.393-8.393C227.083,171.627,223.325,167.869,218.689,167.869z" fill="#8f0034"/>
		</g>
	</g>
</g>
<g>
</g>
<g>
</g>
<g>
</g>
<g>
</g>
<g>
</g>
<g>
</g>
<g>
</g>
<g>
</g>
<g>
</g>
<g>
</g>
<g>
</g>
<g>
</g>
<g>
</g>
<g>
</g>
<g>
</g>
</svg>
