<?xml version="1.0" encoding="iso-8859-1"?>
<!-- Generator: Adobe Illustrator 19.0.0, SVG Export Plug-In . SVG Version: 6.00 Build 0)  -->
<svg xmlns="http://www.w3.org/2000/svg" xmlns:xlink="http://www.w3.org/1999/xlink" version="1.1" id="Capa_1" x="0px" y="0px" viewBox="0 0 512 512" style="enable-background:new 0 0 512 512;" xml:space="preserve" width="512px" height="512px">
<g>
	<g>
		<g>
			<path d="M384,0H128c-23.553,0.028-42.639,19.114-42.667,42.667v426.667C85.361,492.886,104.447,511.972,128,512h256     c23.553-0.028,42.639-19.114,42.667-42.667V42.667C426.639,19.114,407.553,0.028,384,0z M102.4,153.6h51.2v204.8h-51.2V153.6z      M409.6,469.333c-0.015,14.132-11.468,25.585-25.6,25.6H128c-14.132-0.015-25.585-11.468-25.6-25.6v-25.6h307.2V469.333z      M409.6,426.667H102.4v-51.2h307.2V426.667z M409.6,358.4H170.667V153.6H409.6V358.4z M409.6,136.533H102.4v-51.2h307.2V136.533z      M409.6,68.267H102.4v-25.6c0.015-14.132,11.468-25.585,25.6-25.6h256c14.132,0.015,25.585,11.468,25.6,25.6V68.267z" fill="#8f0034"/>
			<path d="M238.933,477.867h34.133c4.713,0,8.533-3.82,8.533-8.533s-3.82-8.533-8.533-8.533h-34.133     c-4.713,0-8.533,3.82-8.533,8.533S234.221,477.867,238.933,477.867z" fill="#8f0034"/>
			<path d="M264.533,34.133h-17.067c-4.713,0-8.533,3.82-8.533,8.533s3.82,8.533,8.533,8.533h17.067c4.713,0,8.533-3.82,8.533-8.533     S269.246,34.133,264.533,34.133z" fill="#8f0034"/>
			<path d="M128,119.467h17.067c4.713,0,8.533-3.82,8.533-8.533s-3.82-8.533-8.533-8.533H128c-4.713,0-8.533,3.82-8.533,8.533     S123.287,119.467,128,119.467z" fill="#8f0034"/>
			<path d="M366.933,119.467H384c4.713,0,8.533-3.82,8.533-8.533s-3.82-8.533-8.533-8.533h-17.067c-4.713,0-8.533,3.82-8.533,8.533     S362.221,119.467,366.933,119.467z" fill="#8f0034"/>
			<path d="M221.867,119.467h68.267c4.713,0,8.533-3.82,8.533-8.533s-3.82-8.533-8.533-8.533h-68.267     c-4.713,0-8.533,3.82-8.533,8.533S217.154,119.467,221.867,119.467z" fill="#8f0034"/>
			<path d="M252.754,408.917c2.067,0.911,4.421,0.911,6.487,0c1.033-0.434,1.986-1.04,2.817-1.792     c1.557-1.637,2.441-3.8,2.475-6.059c-0.02-0.573-0.077-1.143-0.171-1.708c-0.095-0.535-0.268-1.053-0.513-1.537     c-0.188-0.543-0.448-1.058-0.771-1.533c-0.312-0.448-0.653-0.876-1.021-1.279c-3.421-3.158-8.695-3.158-12.117,0     c-0.369,0.404-0.711,0.831-1.025,1.279c-0.323,0.475-0.582,0.991-0.771,1.533c-0.246,0.484-0.417,1.002-0.508,1.537     c-0.096,0.565-0.153,1.136-0.171,1.709c0.032,2.259,0.916,4.423,2.475,6.059C250.771,407.877,251.722,408.483,252.754,408.917z" fill="#8f0034"/>
			<path d="M218.616,408.946c3.187,1.323,6.856,0.606,9.31-1.82c3.3-3.365,3.3-8.752,0-12.117     c-3.421-3.159-8.696-3.159-12.117-0.001c-0.341,0.425-0.683,0.85-1.025,1.279c-0.323,0.475-0.582,0.991-0.771,1.533     c-0.246,0.484-0.417,1.002-0.508,1.537c-0.096,0.565-0.153,1.136-0.171,1.709C213.347,404.517,215.429,407.623,218.616,408.946z" fill="#8f0034"/>
			<path d="M293.406,408.996c3.202-1.329,5.281-4.463,5.261-7.93c-0.02-0.573-0.077-1.143-0.171-1.708     c-0.095-0.535-0.268-1.053-0.512-1.538c-0.188-0.543-0.448-1.058-0.771-1.533c-0.338-0.429-0.679-0.854-1.021-1.279     c-3.421-3.158-8.695-3.158-12.117,0c-3.3,3.365-3.3,8.752,0,12.117C286.516,409.586,290.204,410.326,293.406,408.996z" fill="#8f0034"/>
			<path d="M131.242,179.879c-2.079-0.85-4.409-0.85-6.487,0c-1.033,0.434-1.985,1.041-2.813,1.796     c-0.341,0.425-0.683,0.85-1.025,1.279c-0.323,0.475-0.582,0.991-0.771,1.533c-0.246,0.484-0.417,1.002-0.508,1.538     c-0.1,0.564-0.157,1.136-0.17,1.709c0.012,1.115,0.243,2.216,0.679,3.242c0.434,1.034,1.041,1.987,1.796,2.817     c0.815,0.771,1.77,1.379,2.813,1.792c2.067,0.911,4.421,0.911,6.487,0c1.044-0.414,1.999-1.022,2.817-1.792     c0.752-0.831,1.358-1.783,1.792-2.817c0.438-1.026,0.67-2.127,0.683-3.242c-0.033-2.259-0.917-4.422-2.475-6.059     C133.229,180.92,132.276,180.313,131.242,179.879z" fill="#8f0034"/>
			<path d="M135.85,218.621c-0.188-0.543-0.448-1.058-0.771-1.533c-0.312-0.448-0.653-0.876-1.021-1.279     c-3.421-3.158-8.695-3.158-12.117,0c-1.573,1.626-2.459,3.796-2.475,6.059c0.012,1.115,0.243,2.216,0.679,3.242     c0.434,1.034,1.041,1.987,1.796,2.817c1.636,1.558,3.8,2.441,6.059,2.475c2.262-0.018,4.431-0.904,6.059-2.475     c0.752-0.831,1.358-1.783,1.792-2.817c0.478-1.012,0.712-2.123,0.683-3.242c-0.015-0.573-0.072-1.144-0.171-1.708     C136.268,219.624,136.095,219.106,135.85,218.621z" fill="#8f0034"/>
			<path d="M134.059,249.941c-2.072-1.966-4.958-2.822-7.767-2.304c-0.535,0.091-1.053,0.263-1.538,0.508     c-0.524,0.172-1.014,0.433-1.45,0.771c-0.513,0.341-0.938,0.683-1.362,1.025c-0.754,0.828-1.362,1.78-1.796,2.813     c-0.437,1.027-0.667,2.13-0.679,3.246c0.032,2.259,0.916,4.423,2.475,6.059c1.628,1.571,3.797,2.457,6.059,2.475     c1.115-0.014,2.216-0.246,3.242-0.683c1.054-0.394,2.013-1.005,2.817-1.792c1.557-1.637,2.441-3.799,2.475-6.058     c-0.013-1.116-0.245-2.219-0.683-3.246C135.416,251.722,134.81,250.771,134.059,249.941z" fill="#8f0034"/>
			<path d="M135.85,286.888c-0.188-0.543-0.448-1.058-0.771-1.533c-0.337-0.429-0.679-0.854-1.021-1.279     c-3.421-3.158-8.695-3.158-12.117,0c-1.573,1.626-2.459,3.796-2.475,6.058c0.012,1.115,0.243,2.216,0.679,3.242     c0.414,1.045,1.023,2.001,1.796,2.817c0.404,0.368,0.831,0.709,1.279,1.021c0.475,0.323,0.991,0.582,1.533,0.771     c0.485,0.245,1.003,0.418,1.538,0.512c1.126,0.228,2.286,0.228,3.412,0c0.535-0.095,1.053-0.268,1.538-0.512     c0.525-0.17,1.015-0.431,1.45-0.771c0.49-0.291,0.949-0.633,1.367-1.021c0.77-0.817,1.378-1.773,1.792-2.817     c0.478-1.012,0.712-2.123,0.683-3.242c-0.015-0.573-0.072-1.144-0.171-1.708C136.268,287.89,136.095,287.372,135.85,286.888z" fill="#8f0034"/>
			<path d="M135.85,321.021c-0.188-0.543-0.448-1.058-0.771-1.533c-0.337-0.429-0.679-0.854-1.021-1.279     c-3.421-3.158-8.695-3.158-12.117,0c-0.341,0.425-0.683,0.85-1.025,1.279c-0.323,0.475-0.582,0.991-0.771,1.533     c-0.246,0.484-0.417,1.002-0.508,1.538c-0.228,1.126-0.228,2.286,0,3.412c0.091,0.535,0.263,1.053,0.508,1.538     c0.188,0.544,0.447,1.062,0.771,1.538c0.341,0.425,0.683,0.85,1.025,1.279c0.83,0.752,1.781,1.358,2.813,1.792     c2.067,0.911,4.421,0.911,6.487,0c1.044-0.414,1.999-1.022,2.817-1.792c0.341-0.429,0.683-0.854,1.021-1.279     c0.324-0.476,0.583-0.993,0.771-1.538c0.245-0.485,0.418-1.003,0.513-1.538c0.228-1.126,0.228-2.286,0-3.412     C136.268,322.024,136.095,321.506,135.85,321.021z" fill="#8f0034"/>
			<path d="M196.267,196.267h25.6c4.713,0,8.533-3.82,8.533-8.533s-3.821-8.533-8.533-8.533h-25.6c-4.713,0-8.533,3.82-8.533,8.533     S191.554,196.267,196.267,196.267z" fill="#8f0034"/>
			<path d="M256,196.267h25.6c4.713,0,8.533-3.82,8.533-8.533s-3.821-8.533-8.533-8.533H256c-4.713,0-8.533,3.82-8.533,8.533     S251.287,196.267,256,196.267z" fill="#8f0034"/>
			<path d="M315.733,196.267H332.8c4.713,0,8.533-3.82,8.533-8.533s-3.82-8.533-8.533-8.533h-17.067     c-4.713,0-8.533,3.82-8.533,8.533S311.021,196.267,315.733,196.267z" fill="#8f0034"/>
			<path d="M366.933,196.267H384c4.713,0,8.533-3.82,8.533-8.533s-3.82-8.533-8.533-8.533h-17.067c-4.713,0-8.533,3.82-8.533,8.533     S362.221,196.267,366.933,196.267z" fill="#8f0034"/>
			<path d="M196.267,230.4h8.533c4.713,0,8.533-3.82,8.533-8.533s-3.82-8.533-8.533-8.533h-8.533c-4.713,0-8.533,3.82-8.533,8.533     S191.554,230.4,196.267,230.4z" fill="#8f0034"/>
			<path d="M238.933,230.4H256c4.713,0,8.533-3.82,8.533-8.533s-3.82-8.533-8.533-8.533h-17.067c-4.713,0-8.533,3.82-8.533,8.533     S234.221,230.4,238.933,230.4z" fill="#8f0034"/>
			<path d="M281.6,221.867c0,4.713,3.821,8.533,8.533,8.533H307.2c4.713,0,8.533-3.82,8.533-8.533s-3.82-8.533-8.533-8.533h-17.067     C285.421,213.333,281.6,217.154,281.6,221.867z" fill="#8f0034"/>
			<path d="M384,213.333h-42.667c-4.713,0-8.533,3.82-8.533,8.533s3.821,8.533,8.533,8.533H384c4.713,0,8.533-3.82,8.533-8.533     S388.713,213.333,384,213.333z" fill="#8f0034"/>
			<path d="M196.267,264.533h42.667c4.713,0,8.533-3.82,8.533-8.533s-3.82-8.533-8.533-8.533h-42.667     c-4.713,0-8.533,3.82-8.533,8.533S191.554,264.533,196.267,264.533z" fill="#8f0034"/>
			<path d="M281.6,264.533c4.713,0,8.533-3.82,8.533-8.533s-3.821-8.533-8.533-8.533h-8.533c-4.713,0-8.533,3.82-8.533,8.533     s3.82,8.533,8.533,8.533H281.6z" fill="#8f0034"/>
			<path d="M315.733,264.533h25.6c4.713,0,8.533-3.82,8.533-8.533s-3.821-8.533-8.533-8.533h-25.6c-4.713,0-8.533,3.82-8.533,8.533     S311.021,264.533,315.733,264.533z" fill="#8f0034"/>
			<path d="M384,247.467h-8.533c-4.713,0-8.533,3.82-8.533,8.533s3.82,8.533,8.533,8.533H384c4.713,0,8.533-3.82,8.533-8.533     S388.713,247.467,384,247.467z" fill="#8f0034"/>
			<path d="M196.267,298.667h8.533c4.713,0,8.533-3.82,8.533-8.533s-3.82-8.533-8.533-8.533h-8.533c-4.713,0-8.533,3.82-8.533,8.533     S191.554,298.667,196.267,298.667z" fill="#8f0034"/>
			<path d="M230.4,290.133c0,4.713,3.82,8.533,8.533,8.533H281.6c4.713,0,8.533-3.82,8.533-8.533s-3.821-8.533-8.533-8.533h-42.667     C234.221,281.6,230.4,285.421,230.4,290.133z" fill="#8f0034"/>
			<path d="M349.867,281.6h-34.133c-4.713,0-8.533,3.82-8.533,8.533s3.82,8.533,8.533,8.533h34.133c4.713,0,8.533-3.82,8.533-8.533     S354.58,281.6,349.867,281.6z" fill="#8f0034"/>
			<path d="M388.779,283.05c-0.476-0.324-0.993-0.583-1.538-0.771c-0.484-0.246-1.002-0.417-1.538-0.508     c-1.663-0.348-3.393-0.171-4.95,0.508c-3.247,1.236-5.364,4.381-5.287,7.854c0.012,1.115,0.243,2.216,0.679,3.242     c0.414,1.045,1.023,2.001,1.796,2.817c1.636,1.558,3.8,2.441,6.059,2.475c0.571-0.016,1.141-0.073,1.704-0.171     c0.535-0.095,1.053-0.268,1.538-0.513c0.544-0.188,1.062-0.447,1.538-0.771c0.447-0.314,0.874-0.655,1.279-1.021     c0.77-0.817,1.378-1.773,1.792-2.817c0.437-1.026,0.669-2.127,0.683-3.242c-0.018-2.262-0.904-4.431-2.475-6.059     C389.629,283.733,389.204,283.392,388.779,283.05z" fill="#8f0034"/>
			<path d="M196.267,332.8H230.4c4.713,0,8.533-3.82,8.533-8.533s-3.82-8.533-8.533-8.533h-34.133c-4.713,0-8.533,3.82-8.533,8.533     S191.554,332.8,196.267,332.8z" fill="#8f0034"/>
			<path d="M298.667,315.733h-34.133c-4.713,0-8.533,3.82-8.533,8.533s3.82,8.533,8.533,8.533h34.133     c4.713,0,8.533-3.82,8.533-8.533S303.38,315.733,298.667,315.733z" fill="#8f0034"/>
			<path d="M340.65,321.021c-0.188-0.543-0.448-1.058-0.771-1.533c-0.337-0.429-0.679-0.854-1.021-1.279     c-0.429-0.341-0.854-0.683-1.279-1.025c-0.476-0.324-0.993-0.583-1.537-0.771c-0.484-0.246-1.003-0.417-1.538-0.508     c-1.123-0.258-2.29-0.258-3.412,0c-0.535,0.091-1.053,0.263-1.538,0.508c-0.543,0.188-1.058,0.448-1.533,0.771     c-0.429,0.341-0.854,0.683-1.279,1.025c-2.164,2.164-3.01,5.319-2.218,8.276c0.792,2.957,3.102,5.266,6.059,6.059     c2.957,0.792,6.112-0.053,8.276-2.218c0.341-0.429,0.683-0.854,1.021-1.279c0.324-0.476,0.583-0.993,0.771-1.538     c0.245-0.485,0.418-1.003,0.513-1.538c0.228-1.126,0.228-2.286,0-3.412C341.068,322.024,340.895,321.506,340.65,321.021z" fill="#8f0034"/>
			<path d="M384,315.733h-17.067c-4.713,0-8.533,3.82-8.533,8.533s3.82,8.533,8.533,8.533H384c4.713,0,8.533-3.82,8.533-8.533     S388.713,315.733,384,315.733z" fill="#8f0034"/>
		</g>
	</g>
</g>
<g>
</g>
<g>
</g>
<g>
</g>
<g>
</g>
<g>
</g>
<g>
</g>
<g>
</g>
<g>
</g>
<g>
</g>
<g>
</g>
<g>
</g>
<g>
</g>
<g>
</g>
<g>
</g>
<g>
</g>
</svg>
