<?xml version="1.0" encoding="iso-8859-1"?>
<!-- Generator: Adobe Illustrator 19.0.0, SVG Export Plug-In . SVG Version: 6.00 Build 0)  -->
<svg xmlns="http://www.w3.org/2000/svg" xmlns:xlink="http://www.w3.org/1999/xlink" version="1.1" id="Capa_1" x="0px" y="0px" viewBox="0 0 512 512" style="enable-background:new 0 0 512 512;" xml:space="preserve" width="512px" height="512px">
<g>
	<g>
		<path d="M449.02,86.89c-2.568-3.251-7.285-3.804-10.535-1.237c-3.25,2.567-3.804,7.284-1.237,10.534    c40.424,51.178,36.111,124.567-10.03,170.708c-3.642,3.642-7.454,7.022-11.412,10.141v-60.218c0-9.29-5.485-17.731-13.975-21.504    l-37.823-16.811c-0.187-0.083-0.307-0.268-0.307-0.472v-15.412c7.408-7.194,12.024-17.249,12.024-28.366v-8.016    c0-21.816-17.749-39.565-39.564-39.565s-39.564,17.749-39.564,39.565v8.016c0,11.118,4.616,21.172,12.024,28.367v15.411    c0,0.204-0.121,0.389-0.307,0.472l-37.824,16.811c-8.489,3.773-13.975,12.214-13.975,21.504v60.112    c-0.002-0.002-0.004-0.003-0.006-0.005c-3.251-2.567-7.966-2.014-10.535,1.237c-2.567,3.25-2.014,7.967,1.237,10.534    c26.212,20.704,57.637,30.898,88.955,30.898c36.96,0,73.769-14.203,101.658-42.092C489.345,225.983,494.158,144.037,449.02,86.89z     M311.597,126.239c0-13.545,11.02-24.565,24.564-24.565s24.564,11.02,24.564,24.565v8.016c0,13.545-11.02,24.564-24.564,24.564    s-24.564-11.02-24.564-24.564V126.239z M354.049,189.747l-17.888,14.906l-17.887-14.906c3.338-2.901,5.347-7.151,5.347-11.714    v-6.262c3.944,1.322,8.157,2.049,12.54,2.049s8.597-0.727,12.541-2.049v6.262C348.702,182.596,350.711,186.846,354.049,189.747z     M400.808,287.226c-5.513,3.201-11.219,5.961-17.065,8.281v-57.042c0-4.142-3.358-7.5-7.5-7.5c-4.142,0-7.5,3.358-7.5,7.5v61.954    c-21.281,5.545-43.759,5.586-65.162-0.013v-61.941c0-4.142-3.358-7.5-7.5-7.5c-4.142,0-7.5,3.358-7.5,7.5v57.004    c-5.832-2.325-11.538-5.09-17.064-8.313v-70.337c0-3.368,1.989-6.429,5.067-7.797l26.994-11.997l27.783,23.153    c1.391,1.159,3.096,1.738,4.801,1.738c1.705,0,3.411-0.58,4.801-1.738l27.784-23.153l26.994,11.997    c3.078,1.368,5.067,4.429,5.067,7.797V287.226z" fill="#8f0034"/>
	</g>
</g>
<g>
	<g>
		<path d="M425.11,62.98c-57.148-45.138-139.093-40.325-190.612,11.195c-51.52,51.52-56.333,133.466-11.195,190.612    c1.48,1.874,3.675,2.852,5.891,2.852c1.628,0,3.268-0.528,4.644-1.615c3.25-2.567,3.804-7.284,1.236-10.534    c-40.424-51.178-36.112-124.567,10.03-170.709c46.142-46.141,119.53-50.453,170.708-10.03c3.251,2.568,7.966,2.014,10.535-1.237    C428.914,70.264,428.361,65.547,425.11,62.98z" fill="#8f0034"/>
	</g>
</g>
<g>
	<g>
		<path d="M336.161,0c-96.958,0-175.838,78.881-175.838,175.839c0,45.787,17.597,87.536,46.375,118.857l-26.851,26.851l-6.033-6.033    c-4.444-4.445-10.354-6.893-16.64-6.893s-12.195,2.448-16.64,6.893L11.588,444.459C4.116,451.932,0,461.867,0,472.436    c0,10.568,4.116,20.503,11.588,27.976S28.997,512,39.564,512c10.568,0,20.504-4.116,27.976-11.588l128.946-128.945    c4.445-4.445,6.893-10.354,6.893-16.64s-2.448-12.195-6.893-16.64l-6.033-6.033l26.851-26.851    c31.321,28.778,73.07,46.375,118.857,46.375c96.958,0,175.839-78.881,175.839-175.839S433.119,0,336.161,0z M56.934,489.805    c-4.64,4.64-10.808,7.195-17.37,7.195c-6.561,0-12.73-2.555-17.37-7.195c-4.64-4.64-7.194-10.808-7.194-17.369    c0-6.562,2.555-12.73,7.195-17.37l110.931-110.931l34.74,34.74L56.934,489.805z M185.88,360.859l-7.408,7.409l-34.74-34.74    l7.409-7.409c1.612-1.612,3.754-2.499,6.033-2.499s4.421,0.887,6.033,2.499l22.673,22.673c1.612,1.612,2.499,3.754,2.499,6.033    C188.379,357.105,187.492,359.248,185.88,360.859z M336.161,336.677c-88.687,0-160.838-72.152-160.838-160.839    S247.475,15,336.161,15C424.848,15,497,87.152,497,175.839S424.848,336.677,336.161,336.677z" fill="#8f0034"/>
	</g>
</g>
<g>
</g>
<g>
</g>
<g>
</g>
<g>
</g>
<g>
</g>
<g>
</g>
<g>
</g>
<g>
</g>
<g>
</g>
<g>
</g>
<g>
</g>
<g>
</g>
<g>
</g>
<g>
</g>
<g>
</g>
</svg>
