<svg height="512" viewBox="0 0 64 64" width="512" xmlns="http://www.w3.org/2000/svg" xmlns:xlink="http://www.w3.org/1999/xlink"><linearGradient id="New_Gradient_Swatch_3" gradientUnits="userSpaceOnUse" x1="28" x2="28" y1="62.28" y2="1.369"><stop offset="0" stop-color="#006df0"/><stop offset="1" stop-color="#00e7f0"/></linearGradient><linearGradient id="New_Gradient_Swatch_3-2" x1="36" x2="36" xlink:href="#New_Gradient_Swatch_3" y1="62.28" y2="1.369"/><linearGradient id="New_Gradient_Swatch_3-3" x1="32" x2="32" xlink:href="#New_Gradient_Swatch_3" y1="62.28" y2="1.369"/><linearGradient id="New_Gradient_Swatch_3-4" x1="49" x2="49" xlink:href="#New_Gradient_Swatch_3" y1="62.28" y2="1.369"/><linearGradient id="New_Gradient_Swatch_3-5" x1="57" x2="57" xlink:href="#New_Gradient_Swatch_3" y1="62.28" y2="1.369"/><linearGradient id="New_Gradient_Swatch_3-6" x1="53" x2="53" xlink:href="#New_Gradient_Swatch_3" y1="62.28" y2="1.369"/><linearGradient id="New_Gradient_Swatch_3-7" x1="15" x2="15" xlink:href="#New_Gradient_Swatch_3" y1="62.28" y2="1.369"/><linearGradient id="New_Gradient_Swatch_3-8" x1="7" x2="7" xlink:href="#New_Gradient_Swatch_3" y1="62.28" y2="1.369"/><linearGradient id="New_Gradient_Swatch_3-9" x1="11" x2="11" xlink:href="#New_Gradient_Swatch_3" y1="62.28" y2="1.369"/><linearGradient id="New_Gradient_Swatch_3-11" x1="30.531" x2="30.531" xlink:href="#New_Gradient_Swatch_3" y1="62.28" y2="1.369"/><linearGradient id="New_Gradient_Swatch_3-12" x1="33.535" x2="33.535" xlink:href="#New_Gradient_Swatch_3" y1="62.28" y2="1.369"/><g id="Cloud_code" data-name="Cloud code"><path d="m29 56a1 1 0 0 1 -.707-.293l-2-2a1 1 0 0 1 0-1.414l2-2a1 1 0 0 1 1.414 1.414l-1.293 1.293 1.293 1.293a1 1 0 0 1 -.707 1.707z" fill="url(#New_Gradient_Swatch_3)"/><path d="m35 56a1 1 0 0 1 -.707-1.707l1.293-1.293-1.293-1.293a1 1 0 0 1 1.414-1.414l2 2a1 1 0 0 1 0 1.414l-2 2a1 1 0 0 1 -.707.293z" fill="url(#New_Gradient_Swatch_3-2)"/><path d="m31 57a1 1 0 0 1 -.949-1.316l2-6a1 1 0 0 1 1.9.632l-2 6a1 1 0 0 1 -.951.684z" fill="url(#New_Gradient_Swatch_3-3)"/><path d="m50 56a1 1 0 0 1 -.707-.293l-2-2a1 1 0 0 1 0-1.414l2-2a1 1 0 0 1 1.414 1.414l-1.293 1.293 1.293 1.293a1 1 0 0 1 -.707 1.707z" fill="url(#New_Gradient_Swatch_3-4)"/><path d="m56 56a1 1 0 0 1 -.707-1.707l1.293-1.293-1.293-1.293a1 1 0 0 1 1.414-1.414l2 2a1 1 0 0 1 0 1.414l-2 2a1 1 0 0 1 -.707.293z" fill="url(#New_Gradient_Swatch_3-5)"/><path d="m52 57a1 1 0 0 1 -.949-1.316l2-6a1 1 0 0 1 1.9.632l-2 6a1 1 0 0 1 -.951.684z" fill="url(#New_Gradient_Swatch_3-6)"/><path d="m14 56a1 1 0 0 1 -.707-1.707l1.293-1.293-1.293-1.293a1 1 0 0 1 1.414-1.414l2 2a1 1 0 0 1 0 1.414l-2 2a1 1 0 0 1 -.707.293z" fill="url(#New_Gradient_Swatch_3-7)"/><path d="m8 56a1 1 0 0 1 -.707-.293l-2-2a1 1 0 0 1 0-1.414l2-2a1 1 0 0 1 1.414 1.414l-1.293 1.293 1.293 1.293a1 1 0 0 1 -.707 1.707z" fill="url(#New_Gradient_Swatch_3-8)"/><path d="m10 57a1 1 0 0 1 -.949-1.316l2-6a1 1 0 0 1 1.9.632l-2 6a1 1 0 0 1 -.951.684z" fill="url(#New_Gradient_Swatch_3-9)"/><path d="m54 44.059v-2.059a3 3 0 0 0 -3-3h-2a1 1 0 0 1 -1-1v-2h4a10 10 0 1 0 -4.041-19.148 16 16 0 0 0 -31.576-2.32 10.823 10.823 0 0 0 -3.383-.532 11 11 0 0 0 0 22h2v2a1 1 0 0 1 -1 1h-2a3 3 0 0 0 -3 3v2.232a8.973 8.973 0 1 0 2-.232v-2a1 1 0 0 1 1-1h2a3 3 0 0 0 3-3v-2h14v8.059a9 9 0 1 0 2 0v-8.059h13v2a3 3 0 0 0 3 3h2a1 1 0 0 1 1 1v2.059a9 9 0 1 0 2 0zm-36 8.941a7 7 0 1 1 -7-7 7.008 7.008 0 0 1 7 7zm21 0a7 7 0 1 1 -7-7 7.008 7.008 0 0 1 7 7zm-35-28a9.011 9.011 0 0 1 9-9 8.716 8.716 0 0 1 3.726.815 1 1 0 0 0 1.414-.766 14 14 0 0 1 27.86 1.951c0 .161 0 .321-.008.472a1 1 0 0 0 1.56.885 7.889 7.889 0 0 1 4.448-1.357 8 8 0 0 1 0 16h-39a9.011 9.011 0 0 1 -9-9zm49 35a7 7 0 1 1 7-7 7.008 7.008 0 0 1 -7 7z" fill="url(#New_Gradient_Swatch_3-3)"/><path d="m27.555 17.832a1 1 0 1 0 -1.11-1.664l-1.123.749a7 7 0 0 1 12.857-1.21 1 1 0 1 0 1.764-.942 9 9 0 0 0 -16.531 1.55l-.58-.87a1 1 0 1 0 -1.664 1.11l2 3a1 1 0 0 0 1.387.277z" fill="url(#New_Gradient_Swatch_3-11)"/><path d="m42.832 21.445-2-3a1 1 0 0 0 -1.387-.277l-3 2a1 1 0 0 0 1.11 1.664l1.13-.753a7 7 0 0 1 -12.748 1.421 1 1 0 1 0 -1.732 1 9 9 0 0 0 16.385-1.813l.578.868a1 1 0 1 0 1.664-1.11z" fill="url(#New_Gradient_Swatch_3-12)"/></g></svg>