<svg id="Layer_35" enable-background="new 0 0 64 64" height="512" viewBox="0 0 64 64" width="512" xmlns="http://www.w3.org/2000/svg" xmlns:xlink="http://www.w3.org/1999/xlink"><linearGradient id="SVGID_1_" gradientUnits="userSpaceOnUse" x1="32" x2="32" y1="63" y2="1"><stop offset="0" stop-color="#9f2fff"/><stop offset="1" stop-color="#0bb1d3"/></linearGradient><path d="m23 7v-2c2.757 0 5 2.243 5 5h-2c0-1.654-1.346-3-3-3zm40-3v8c0 1.654-1.346 3-3 3h-3v2h2v2h-14v-2h2v-2h-3c-1.654 0-3-1.346-3-3v-3h-3c-.551 0-1 .449-1 1v19h4v-3c0-1.654 1.346-3 3-3h16c1.654 0 3 1.346 3 3v8c0 1.654-1.346 3-3 3h-3v2h2v2h-14v-2h2v-2h-3c-1.654 0-3-1.346-3-3v-3h-4v19c0 .551.449 1 1 1h3v-3c0-1.654 1.346-3 3-3h16c1.654 0 3 1.346 3 3v8c0 1.654-1.346 3-3 3h-3v2h2v2h-14v-2h2v-2h-3c-1.654 0-3-1.346-3-3v-3h-3c-1.654 0-3-1.346-3-3v-19h-3c-1.654 0-3-1.346-3-3v-5h-8v8.184c.314-.112.648-.184 1-.184.771 0 1.468.301 2 .78.532-.48 1.229-.78 2-.78 1.383 0 2.539.945 2.884 2.22.346-.139.721-.22 1.116-.22 1.654 0 3 1.346 3 3v13c0 1.505-.497 2.997-1.4 4.2l-1.6 2.133v1.667h2v6h-22v-6h2v-1.77l-3.304-6.793c-.43-.748-.722-1.625-.837-2.546l-.691-5.534c-.085-.681-.332-1.344-.713-1.915l-1.029-1.543c-.279-.418-.426-.904-.426-1.406.001-1.398 1.138-2.535 2.535-2.535 3.062 0 5.72 2.179 6.32 5.18l.839 4.194c.2-.409.305-.864.305-1.319v-18.013h-7.999c-3.309 0-6-2.691-6-6 0-3.065 2.311-5.596 5.281-5.953.854-2.967 3.558-5.047 6.719-5.047.621 0 1.232.081 1.825.242 1.453-3.173 4.622-5.242 8.175-5.242 4.962 0 9 4.038 9 9 0 .362-.025.723-.068 1.08 1.169.184 2.225.703 3.068 1.461v-2.541c0-1.654 1.346-3 3-3h3v-3c0-1.654 1.346-3 3-3h16c1.654 0 3 1.346 3 3zm-8 55h-6v2h6zm6-3v-1h-18v1c0 .551.449 1 1 1h16c.551 0 1-.449 1-1zm-18-8v5h18v-5c0-.551-.449-1-1-1h-16c-.551 0-1 .449-1 1zm12-11h-6v2h6zm6-3v-1h-18v1c0 .551.449 1 1 1h16c.551 0 1-.449 1-1zm-18-8v5h18v-5c0-.551-.449-1-1-1h-16c-.551 0-1 .449-1 1zm-36-5h8.184c.414-1.161 1.514-2 2.816-2s2.402.839 2.816 2h10.184c2.206 0 4-1.794 4-4s-1.794-4-4-4-4 1.794-4 4h-2c0-2.933 2.117-5.377 4.903-5.895.058-.364.097-.732.097-1.105 0-3.86-3.14-7-7-7-3.03 0-5.701 1.936-6.647 4.816l-.343 1.045-1.008-.441c-.637-.279-1.311-.42-2.002-.42-2.096 0-3.904 1.284-4.642 3.161 2.656.618 4.642 2.998 4.642 5.839h-2c0-2.206-1.794-4-4-4s-4 1.794-4 4 1.794 4 4 4zm23 38h-18v2h18zm-9-25v4h-2v-4-12c0-.551-.449-1-1-1s-1 .449-1 1v19.014c0 .772-.183 1.545-.528 2.236l-.854 1.708h-2.438l-1.286-6.427c-.415-2.07-2.248-3.573-4.359-3.573-.295 0-.535.24-.535.535 0 .106.031.208.09.297l1.029 1.543c.552.828.91 1.788 1.033 2.776l.691 5.534c.083.658.291 1.284.62 1.86l3.537 7.267v2.23h14v-2.333l2-2.667c.645-.859 1-1.925 1-3v-13c0-.551-.449-1-1-1s-1 .449-1 1v2h-2v-2-2c0-.551-.449-1-1-1s-1 .449-1 1v4h-2v-4c0-.551-.449-1-1-1s-1 .449-1 1zm14-5v-7.54c-1.063.954-2.462 1.54-4 1.54v5c0 .551.449 1 1 1zm8-25v5h18v-5c0-.551-.449-1-1-1h-16c-.551 0-1 .449-1 1zm12 11h-6v2h6zm6-3v-1h-18v1c0 .551.449 1 1 1h16c.551 0 1-.449 1-1z" fill="url(#SVGID_1_)"/></svg>